<svg width="559" height="446" viewBox="0 0 559 446" fill="none" xmlns="http://www.w3.org/2000/svg">
<path d="M390 55.9998V67.9998C390.1 70.2998 390.5 71.9998 391 73.9998C393.483 82.6726 397.551 90.81 403 97.9998C405 100.3 408.7 102 410 105C414 108.4 419.6 111.8 424 114C425.7 114.6 429.7 115.1 431 116C432.9 117.3 433.9 118.3 431 120V121C430.4 122.8 429.1 124.5 428 126C426 128.666 423.667 131 421 133C416.7 136.2 411.5 139.8 406 140H405C403.667 141.066 402 141.733 400 142H396C390.8 142.7 383.1 144.2 378 142H372C370.4 142 369 141.2 368 141H365C362.893 140.714 360.857 140.036 359 139H358C355.5 138.9 354 137.8 352 137L348 136C339.6 134 327.7 129.4 321 124H320C315.4 123 310.5 119.7 306.3 117.7C302.1 115.7 295.8 114.7 293 111H292C288 110 283.1 107.5 280 105H279C272.2 103.4 265.4 98.9998 259 95.9998C252.5 93.1998 244.4 90.2998 239 85.9998H238C231 84.7998 222.6 81.9998 216 79.9998H119C113.7 84.2998 105.3 84.2998 100.3 90.2998C95.3 96.2998 90.8 101 88 108C87.6 109.5 87.2 110.3 87 112C86.8 113.6 86.2 116 86 117V168C86.2 169.2 86.8 171.2 87 173C87.2 175 87.5 176.2 88 178C89.6561 182.163 91.6633 186.177 94 190C94.8 190.7 95.4 192.2 96 193C97.8 195 100.9 196.4 102 199C111.5 207.3 125.5 209.3 135 217H136C141.1 218.2 148 221.8 152 225H153C157 226 161.9 228.5 165 231H166C169.067 231.8 171.733 233.133 174 235H175C177 235.1 177.6 236.3 179 237C180.6 237.8 181.7 237.7 183 239H184C185.667 239.2 187 239.866 188 241H189C192 241.7 195.7 243 198 245H199C203.7 245.8 212.4 248.1 216 251H217C219.5 251.1 221 252.3 223 253C224.8 253.4 226 253.8 228 254C230 254.266 231.667 254.6 233 255C234.6 254.8 235 255 236 256H237C238.667 255.666 240 256 241 257H242C243.667 256.666 245 257 246 258H247C249.2 257.8 251.5 257.7 253 259H254C256.667 258.733 259 259.066 261 260H306C307.2 259.8 309.1 259 311 259H317C318.5 258.4 319.9 257.7 322 258H323C324 257.066 325.333 256.733 327 257H328C329 256.066 330.333 255.733 332 256H333C335.4 254.7 338 254.4 341 254L346 253C348 252.3 349.6 251.4 352 251C356 250.3 359.2 249.3 363 248C365.3 247 367.2 245.5 370 245H371C372 243.866 373.333 243.2 375 243H376C377.9 241.5 379.9 241 382 240C383.933 238.933 385.933 237.933 388 237C391.769 235.568 395.443 233.898 399 232C403.4 229.2 407.9 226 413 224C413 224 413.6 224.2 414 224C415.8 221.2 421 219.2 424 218C424 218 424.6 218.2 425 218C426.5 215.6 430.3 214 433 213C433 213 433.6 213.2 434 213C435.5 210.6 439.3 209 442 208C442 208 442.6 208.2 443 208C444.3 206 446.8 204.9 449 204C449 204 449.6 204.2 450 204C452 201 457.7 198.4 461 197L466 195C472.3 191.2 477.8 185.4 484 181V180C484 178.1 483.6 175.8 484 174C483 169.5 480.1 168.5 477 166H476C474.8 166 473.2 165.8 472 166C463.1 167.7 455.5 177.3 446.8 180.8C438 184.2 429.9 191.5 421 195H420C409.1 205.6 390.8 211 377.3 218.3C363.8 225.6 343.7 234.6 328 235H327C326 235.933 324.667 236.266 323 236H322C321 236.933 319.667 237.266 318 237H317C315.5 238.3 313.1 238.2 311 238H310C308.3 239.3 305.4 239.2 303 239C302 239.2 300.6 240 299 240H294C287.4 240 280.6 240.4 274 240C272.1 239.9 271.3 240.3 270 239H262C259.2 238.8 256.3 237.7 254 237H252C248.2 237.266 244.867 236.6 242 235H241C238 235 235.333 234.333 233 233H232C229.836 233 227.731 232.298 226 231H225C219.1 230.8 213 227.2 208 225L204 224C202.3 223.5 201.2 223.3 200 222H199C197.333 221.866 196 221.2 195 220H194C191.733 219.4 189.733 218.4 188 217H187C183.5 216.2 179.7 214.1 177 212H176C174.3 212 173.8 211.3 173 210H172C160.4 207.3 148.8 198.5 137.8 194.2C126.8 190 111.9 185 108 173H112C128.2 173 144.8 172 161 173C162.7 173.1 164 173.8 165 174C167.1 174.4 168.4 173.5 170 175H171C174.6 175.1 179.4 176.8 182 179H183C189.517 180.304 195.664 183.037 201 187H202C205.067 187.8 207.733 189.133 210 191H211C215.2 192 219.3 194.4 223 196C225.267 196.8 227.6 197.466 230 198C235.7 199.3 243 200.3 248 203H249C252.7 202.8 256 204.1 259 205H268C269.6 205 271 205.8 272 206H304C306.2 204.4 310 205 313 205H314C321.036 202.365 328.487 201.011 336 201C338.517 199.835 341.231 199.156 344 199C345.7 197.6 347.7 197.4 350 197C354.071 196.307 358.082 195.304 362 194C364.3 193 366.2 191.5 369 191H370C371 189.866 372.333 189.2 374 189H375C376.9 187.5 378.6 186.8 381 186L384 185C388.1 182.7 392.4 179.8 397 178C397 178 397.6 178.2 398 178C399.5 175.6 404.3 173 407 172C407 172 407.6 172.2 408 172C413.3 163.9 425.6 159.5 432.8 151.8C439.9 144 445 133 452 126V125C452.279 123.203 452.963 121.493 454 120C456.1 117.8 462.9 119 466 119C467.333 119.133 468.667 119.133 470 119C471 118.8 472.3 117.8 474 118H475C476.4 117 478.067 116.333 480 116H481C482.4 114.733 484.067 113.733 486 113C486 113 486.6 113.2 487 113C496 103.7 505 97.5998 510 84.9998C511.1 82.1998 513.5 78.5998 514 75.9998C514.2 74.9998 514.2 72.9998 514 71.9998C512.5 65.9998 501.7 69.5998 498.3 74.2998C494.9 78.9998 484.7 79.9998 479 79.9998H472C464.2 84.2998 452.7 85.6998 449 95.9998C447.406 90.5866 444.595 85.6098 440.782 81.45C436.969 77.2902 432.254 74.0577 427 71.9998C425.5 71.4998 424.5 71.2998 423 70.9998C420.9 70.4998 419.4 70.7998 418 68.9998H417C412.215 67.7573 407.987 64.9391 405 60.9998C403 58.0998 401.6 54.4998 399 51.9998H398C394.1 51.3998 391.9 52.9998 390 55.9998ZM209 101H210C212.2 100.8 214.5 100.7 216 102H217C218.667 101.667 220 102 221 103H222C228.215 103.676 234.111 106.103 239 110H240C244.4 111 248.2 114.1 252 116C254.1 117 256.1 117.5 258 119H259C263 120 267.9 122.5 271 125H272C276 126 280.9 128.5 284 131H285C289 132 293.9 134.5 297 137H298C305.577 138.955 312.706 142.35 319 147H320C323.5 147.8 327.3 149.9 330 152H331C337.1 153.4 343.3 157 349 159C350.8 159.4 352 159.8 354 160C355.8 160.2 357.7 160.8 359 161C360.667 160.666 362 161 363 162H369C371.5 162 373 162.3 375 163H378C377.533 164.4 376.533 165.066 375 165C370.163 168.333 364.731 170.71 359 172L349 175C347 175.8 345.6 176.9 343 177H342C339.4 179.1 334.5 180 331 180H330C326.9 182.5 319.3 183.5 315 183H314C312.5 184.3 310.1 184.2 308 184C307 184.2 305.6 185 304 185H293C289.2 185.4 284.7 185.4 281 185H272C269.7 185 267.7 184.3 266 184H263C261.2 184 260.1 183.3 259 183C255.5 182.2 252 182.3 249 181H248C243.9 180.3 238.2 179.6 235 177H234C231.333 176.6 229 175.6 227 174H226C224.333 173.866 223 173.2 222 172H221C218.733 171.4 216.733 170.4 215 169H214C206.8 167.3 200.7 163.1 193.8 160.2C186.8 157.4 177.6 155.9 171 153H160C146 153 131.1 153.3 118 152C115.7 152 113.2 152.3 111 152C109.744 151.803 108.584 151.213 107.685 150.315C106.787 149.416 106.197 148.255 106 147C104.2 142.2 105.6 136.6 106 132C106 127.7 105.6 123.3 106 119C106.2 115.8 108.2 111.7 110 109C111.333 107 113 105.333 115 104C117.1 102 120.4 101.7 123 101C138.6 97.0998 159.3 99.9998 176 99.9998C181.2 99.9998 188 99.4998 193 99.9998C198 100.5 205.2 98.1998 209 101Z" fill="black"/>
<path d="M162 132V133C163.8 135.9 166.5 138.3 170 139C170.3 138.8 173.7 138.8 174 139C181 137.6 183.2 130.2 181 124V123C179.109 121.009 176.675 119.618 174 119C173.7 119.2 170.3 119.2 170 119C163.5 120.3 161.4 125.8 162 132Z" fill="black"/>
<path d="M465 211H464C445.8 225.6 422.8 235.6 404 250C385 264.2 361.3 279.3 338 284L334 285C331.6 286 330 287 327 287H326C323.667 288.333 321 289 318 289H317C315.7 290.2 314 290.1 312 290H310C308.267 290.733 306.267 291.067 304 291H302C299 292.2 295.5 292 292 292C285.7 292.6 278.2 292.6 272 292C268.6 292 263.6 292.9 261 291H260C257.8 291.2 255.5 291.3 254 290H253C251 290.2 249.3 290.2 248 289H247C239.4 289.5 230.5 285.6 224 283L220 282C207.194 278.623 194.984 273.294 183.8 266.2C173.4 259.6 160.6 253.4 151.3 245.7C142.1 238 127.5 232.9 121 223H120C117.7 221.6 115.5 220.3 114 218H113C109 215.5 104.5 212.8 101 210H92C90.4617 210.517 89.0918 211.441 88.0356 212.673C86.9794 213.906 86.276 215.401 86 217C86.3 220.3 86 223.7 86 227V236C86.2 237.6 87 239.8 87 242V245C87.2 246 88.2 247.2 88 249V250C89.2 251.2 88.8 252.2 89 254C89.8 260.7 92 266.6 94 273C95.7 277.3 98.2 282.1 99 287V288C100.2 289 100.867 290.333 101 292V293C103.177 296.053 104.864 299.427 106 303C106.7 305 107 306 108 308C116 320.7 123.7 333.5 133.8 345.3C143.8 357 154.6 365.9 166.2 375.7C177.9 385.6 194.5 389.7 206 399H207C208.667 399.2 210 399.867 211 401H212C214.8 401.4 216.8 403 219 404L226 406C231.7 407.3 239 408.3 244 411H245C247.1 410.7 248.6 411.8 250 412H253C255.8 412.2 258.8 413 261 414H269C271.1 414 273.6 414.8 275 415H296C297.2 414.8 299.2 414 301 414H310C313.3 413 317 411.6 321 412H322C324.7 409.8 329.4 409.6 333 409C335.713 408.534 338.387 407.866 341 407C347.5 404.4 354.9 400.7 362 399H363C371.5 392.2 383.6 389.3 392.2 382.2C400.9 375.2 410.5 369.4 419 362C423.4 358.2 428 353 432 349C446.8 334.2 452.7 314.4 465 299V298C465.6 295.733 466.6 293.733 468 292V291C468.2 289.333 468.867 288 470 287V286C470.5 282.7 472 277.4 474 275V274C474 271.667 474.667 269.667 476 268V267C477.1 260.3 478.4 252 481 246V245C480.8 243 480.8 241.3 482 240V232C482 226.7 481.5 221.2 482 216C481.213 213.685 479.834 211.616 478 210C477 209.5 476.9 209.6 476 209H470C468.6 210 466.933 210.667 465 211ZM459 249C456.9 262.4 437.8 269.3 428 279C418 288.5 404.3 298 393 306C381.5 314 367.9 325.7 354 329H353C350.05 331.141 346.613 332.516 343 333H342C338.409 335.34 334.277 336.717 330 337H329C326.667 338.333 324 339 321 339H320C318.9 340.1 317.7 340 316 340H314C312.8 340.4 311.8 341 310 341H308C306.2 341.7 304.4 342.3 302 342H301C299.8 343.2 298.7 343 297 343H292C286.3 343.6 279.7 343.8 274 343H270C268.1 343 267.3 342.4 266 342H260C258.1 342 257.3 342.3 256 341H255C253.333 341.333 252 341 251 340H250C241.9 340.5 233.2 336.4 225.8 334.2C218.4 332 210 329.8 204 325H203C190.2 320 175.9 309.4 165.3 300.7C154.7 292 138.8 284.2 131 273C130.7 272.8 130 273 130 273C124.3 268.6 113.4 263 111 256C110.1 253.4 110 250.6 109 248C108.2 245.8 106.5 243 107 240C134.827 260.935 164.25 279.659 195 296H196C198.267 296.6 200.267 297.6 202 299H203C205.8 299.4 207.8 301 210 302C213.333 303.2 216.667 304.2 220 305L226 307C227.933 307.4 229.933 307.733 232 308C234 308.267 235.667 308.6 237 309C238.6 308.8 239 309 240 310H241C243 309.8 244.7 309.8 246 311H247C249.2 310.7 250.4 311.4 252 312H260C261.6 312 263 312.9 264 313H304C305.8 311.7 308.6 311.8 311 312H312C313.2 310.8 315.2 310.8 317 311H318C319.2 309.8 321.2 309.8 323 310H324C325.1 308.9 326.3 309 328 309H330C333.5 307.3 336.9 306.7 341 306L345 305C348.4 303.6 352.1 302 356 301C357.5 300.6 358.5 300.5 360 300C361.4 299.3 362 298.1 364 298H365C366.733 296.6 368.733 295.6 371 295H372C374.5 293 378 291.2 381 290L384 289C385.4 288.1 386 286.5 388 286H389C389.933 284.533 391.267 283.533 393 283H394C401.3 275.3 413 269.8 421.7 263.7C430.5 257.6 439.9 248.7 450 245C450.4 244.8 451 245 451 245C453.533 242.4 456.533 240.4 460 239C461.3 241.5 459.5 245.7 459 249ZM439 304C438.8 304.4 439 305 439 305C435.6 314.6 426.3 324 420 332C416.396 336.377 412.377 340.396 408 344C399.645 351.455 390.717 358.242 381.3 364.3C371.8 370.1 361.3 379.1 350 381H349C346.05 383.141 342.613 384.516 339 385H338C334.8 387.6 329.1 388.3 325 389H324C323 389.933 321.667 390.267 320 390H319C318 390.933 316.667 391.267 315 391H314C309.1 393.3 303.5 392 298 393C297 393.2 295.5 394 294 394C287.8 394.4 281.2 394.3 275 394C273.2 394 271.2 393.2 270 393H266C264.4 393 263 392.1 262 392H258C254.1 391.7 249.2 390.7 246 389H245C241.7 388.5 237.5 388 235 386H234C230.4 385.9 225.6 384.2 223 382H222C218.1 381.4 214 379.4 211 377H210C193.9 373.2 177.8 358.1 165 348C148.982 333.288 135.472 316.062 125 297C142.7 308.5 160 322.5 177 335H178C182 336.6 190.8 340.4 193 344H194C198.6 345 204.4 348.1 208 351H209C210.667 351.2 212 351.867 213 353H214C217.3 353.5 222.6 355 225 357H226C228.333 357 230.333 357.667 232 359H233C234.667 358.667 236 359 237 360H238C239.667 359.667 241 360 242 361H243C246.8 360.8 250.9 362 254 363H263C264.6 363 266 363.8 267 364H299C300.2 363.8 302.2 363 304 363H312C318.56 361.179 325.244 359.842 332 359L337 358C339 357.3 340.7 356.5 343 356L347 355C348.5 354.4 350 353.3 352 353H353C355 351.4 357.333 350.4 360 350H361C362.733 348.6 364.733 347.6 367 347H368C379.7 337.6 395.6 332.4 407 322C418.6 311.7 432 303.5 444 294C443.684 297.853 441.893 301.436 439 304Z" fill="black"/>
</svg>
